<svg xmlns="http://www.w3.org/2000/svg" viewBox="0 0 288 288"><defs><style>.cls-1{fill:#f15a24;}</style></defs><title>2k12cr logo_text</title><g id="Layer_1" data-name="Layer 1"><path class="cls-1" d="M18,128.33l-.36-13.45,30.87,7.44,10,13.77.16,22.32L37.23,177.58s22,11.72,77.74-1.74c0,0-.27,9.83-.63,13.14-50.85,13.17-95-4.27-95-4.27l-1.27-18s14.41-2.37,28-16.78l-.32-9.18-5.7-7L18,128.33"/><polygon class="cls-1" points="68.8 172.41 67.65 123.08 80.58 121.56 83.26 139.46 94.24 118.45 108.12 115.17 96.56 144.66 109.95 168.88 95.01 171.64 83.84 155.45 83.26 172.61 68.8 172.41"/><polygon class="cls-1" points="124.89 187.64 123.54 134.45 116.6 138.69 111.01 131.17 123.15 114.79 134.52 112.09 137.22 184.56 124.89 187.64"/><path class="cls-1" d="M143.4,122.93l23.31-7.57,5.78,5.4.39,7.52-27.37,33.15,1,19.27c98.1-33.92,134.72-1.16,134.72-1.16l-.39-14.45c-44.33-27.56-118.72-3.85-118.72-3.85l25.25-31.8-.19-18.12-14.07-10.79L142.62,109l.78,13.93"/><polygon class="cls-1" points="227.11 142.63 195.74 145.75 195.44 94.15 226.66 89.99 226.96 103.52 207.04 105.16 206.89 133.56 227.11 131.93 227.11 142.63"/><path class="cls-1" d="M265.33,122.11l6.54,1.64L270.53,94l-34.95-5.95,1,55.47,15.47,2.38.89-19.78,15,25.28,12.19,4ZM250,109.62l.15-10.11,10.08,2.61.18,9.89Z"/><path d="M278.57,163.83a17.65,17.65,0,0,0-.39,4.23c0,1,0,2,0,3a18.31,18.31,0,0,0,0,3,9.71,9.71,0,0,1,.16,2.58c-.14.6-.47.75-.85,1.11-.91.86-1.68.37-3.31-.38-1.83-.84-3.69-1.79-5.51-2.68-3-1.46-6.08-3-9.08-4.33A77.51,77.51,0,0,0,239,164.59c-3.81-.57-7.62-.8-11.43-1-3.59-.22-7.21.33-10.79.25a125.87,125.87,0,0,0-21.31,1.71,149,149,0,0,0-18.72,3.79c-6.55,1.83-13.1,4-19.65,6.1-2.86.93-5.75,2-8.61,2.78-1.64.45-3.23.57-4.88,1-1.36.36-3.43,1.35-4.35.32s-.24-2.42-.27-3.75c0-1-.17-2-.22-3-.13-2.75-.17-5.57-.46-8.26-.15-1.42-.66-2.86-.75-4.25s1.54-2.74,2.57-3.93c2.19-2.56,4.24-5.2,6.47-7.73,5.13-5.86,9.9-11.93,14.76-17.94,1-1.28,2.16-2.42,3.24-3.65a15.18,15.18,0,0,0,1.2-1.44c.55-.8.49-.74.35-1.65-.21-1.35-.08-4.42-1.45-5.66-1-.95-2.11-1.88-3.14-2.83-.39-.36-.79-.93-1.32-1-.78-.15-2,.58-2.76.82-3.35,1-12.85,3.62-14.28,4.2a19.45,19.45,0,0,1-2.79,1,15.25,15.25,0,0,0-2.16.67c-3.86,1.62-2.56-3.69-2.63-6,0-1.38-.21-4.81-.32-6.14a6.61,6.61,0,0,1,.26-3.63c1.3-2.48,5.28-2.78,7.4-3.54,6.64-2.39,13.25-3.76,19.89-5.44,1.5-.38,3-.75,4.47-1.11a4.89,4.89,0,0,1,4.35.54,49.69,49.69,0,0,1,6.5,5.35c1.08.94,2.22,1.78,3.24,2.81.67.67,2,1.37,2.24,2.38a6,6,0,0,1-.08,1.64c0,.8.17,1.56.16,2.35,0,1.81,0,3.64,0,5.45-.06,3.25,0,6.49,0,9.77,0,2.16-1,2.6-2.41,4.19-1.12,1.25-2.09,2.67-3.13,4-2.24,2.88-4.56,5.72-6.75,8.67-1.89,2.55-4.19,4.83-6.18,7.36-1.72,2.19-3.87,4.35-5.35,6.68,1.53.4,5-1.36,6.73-1.92,2-.67,4-1.36,6.05-1.84s4.15-1,6.19-1.39a64.4,64.4,0,0,0,7-1.73c6.88-2.33,14-2.3,21-2.88a119.77,119.77,0,0,1,13.8-.87c2.23.07,4.53,0,6.79.13s4.38.6,6.5.76c.94.07,1.87.06,2.81.1s1.61.21,2.44.28a53.58,53.58,0,0,1,5.72,1c1.28.26,2.48.23,3.74.6,2.3.67,4.71,1.27,7,2,3.84,1.17,7.9,3,11.8,4.5,1,.37,1.87.76,2.84,1.23,1.27.61,2.56,1,3.81,1.67a11.08,11.08,0,0,1,3.12,2C278.68,161.51,278.57,162.4,278.57,163.83Zm-3.9-1a15.79,15.79,0,0,0-4.46-2.5c-1.64-.78-3.24-1.51-4.91-2.19a110.11,110.11,0,0,0-11.49-4.23,112.08,112.08,0,0,0-24-3.84,146.15,146.15,0,0,0-20.8.29c-7.2.6-14.47.62-21.65,2.61-3.14.87-6.2,1.59-9.37,2.42-3.48.92-7,1.55-10.46,2.82-3.29,1.2-6.59,2-9.87,3.18-1.5.56-3,1.23-3.71-.32-.54-1.26.28-2.6,1.06-3.91,1.65-2.77,4.23-5.41,6.27-7.93,2.35-2.91,5-5.65,7.19-8.6,2.41-3.19,4.87-6.31,7.29-9.46.71-.92,1.42-1.83,2.18-2.71a15.76,15.76,0,0,0,2-2.18c.76-1.4.15-3.66.16-5.14,0-3.54,0-7.06-.08-10.57,0-1.6-.21-2.46-1.34-3.37s-2.33-1.58-3.4-2.5-1.94-1.75-2.95-2.6c-1.2-1-2.68-2.9-4.45-2.92s-4.08.94-5.85,1.38l-5.22,1.27a96.29,96.29,0,0,0-10.69,2.95c-1.52.56-2.77,1-4.22,1.44-.54.16-1.66.16-2.1.7s-.07,2-.05,2.73c0,.84,0,3.73.08,4.56a10.79,10.79,0,0,0,0,2.25c.29.78.91.21,1.83-.12s10.71-3.28,14.55-4.51c1.69-.55,3.47-1.1,5.17-1.55,1.87-.5,2.67.42,3.85,1.46s2.26,2.24,3.49,3.23c.63.51,1.22.58,1.37,1.48a10.26,10.26,0,0,1,0,1.86c.06,1.85.39,1.51.29,3.38-.19,3.54-1.21,5.14-1.78,5.75s-1.31,1.52-2,2.29c-1.43,1.72-3,3.39-4.37,5.14-2.12,2.63-4.34,5.56-6.31,8-2.39,3-5.06,5.93-7.69,8.68a51.33,51.33,0,0,0-3.74,4.54c-.5.66-1.83,1.94-2,2.7a8.41,8.41,0,0,0,.23,2.68,82.08,82.08,0,0,1,.6,8.19c0,1,.11,2,.12,3,0,.44,0,.92,0,1.33.12,1.27,1.18.85,2.31.65a83.38,83.38,0,0,0,11.17-3.2c6.81-2.33,13.65-4.51,20.45-6.54a101.78,101.78,0,0,1,19.83-3.77c3.82-.34,7.73-1.22,11.58-1.45,3.3-.2,6.49-.09,9.78-.19,1.55,0,3.14-.18,4.64-.19,1-.11,10.92.4,12.14.64a50.11,50.11,0,0,1,8,1.14c5.29,1.41,10.65,2.56,15.93,4.82,4.58,2,9.18,4.48,13.81,6.6,1.53.7,1.5.8,1.39-.67-.07-1,0-1.92,0-2.87a29.06,29.06,0,0,1,.05-2.94C274.49,165.13,274.31,163.59,274.67,162.85Z"/><path d="M36.68,174.4c.42.5,3,.73,3.58.81,1,.15,2,.27,3.09.46a77.47,77.47,0,0,0,16.11.81c10.15-.24,20.25-.32,30.38-2.15,3-.55,6.08-1.27,9.13-2,1.56-.35,3.11-.69,4.66-1,.84-.2,1.66-.53,2.5-.76.48-.13,4-1.28,4.68-1.17a2,2,0,0,1,1.53,2.09c0,1.24-.28,2.63-.27,3.91a34.31,34.31,0,0,1-.11,3.88c-.2,2,.2,4.21-.5,6.11-.44,1.2-1.19,2.34-2.4,2.24-.61,0-7.36,1.34-8.74,1.57-2.82.51-5.67,1.08-8.44,1.45-3,.39-5.95.68-8.92,1a60,60,0,0,1-8.37.66c-2.87-.12-5.8.32-8.71.21s-5.49-.32-8.28-.48a150.2,150.2,0,0,1-18.53-1.92c-2.53-.47-5.1-1.16-7.63-1.71a74.7,74.7,0,0,1-8.21-2.08c-2.46-.83-4.86-1.42-7.29-2.39a7.91,7.91,0,0,1-3.45-2c-1-1.27-.63-2.45-.7-3.56a58.94,58.94,0,0,0-.79-7.58,57.77,57.77,0,0,1-1.29-7.53c-.11-2.13,9.12-2.72,11.11-3.75s4.08-2.78,6.06-3.62c2.42-.93,9.67-7.63,10.71-8.24s1.14-1.27,1.16-2.72c0-2,0-3.84.05-5.79,0-1.38.13,2,.07.63-.1-2.12-2.7-4.44-4.09-6.32a3.56,3.56,0,0,0-3.15-1.75A33.42,33.42,0,0,1,27,131a71.61,71.61,0,0,1-7.64-2c-1-.37-2-.75-3-1.14a12.81,12.81,0,0,1-3.47-1.37A3.93,3.93,0,0,1,11,123.26c-.11-1.26-.51-2.59-.64-3.88-.31-3-.74-6.77-.35-9.43s3.84-.12,6,.55c5.34,1.72,10.64,2.89,16,4.32,2.84.76,5.61.74,8.45,1.25a12.39,12.39,0,0,1,4,1c1.14.68,2.16,2.58,2.87,3.72,1.29,2.06,2.41,4,3.81,5.94s4.17,4.15,4.3,6.35,0,4.62.12,6.88a12.74,12.74,0,0,1,.1,2c0,1.92.3,3.86.23,5.76-.08,2.13.4,4.79-.13,6.8-.65,2.42-3.17,4.35-4.95,5.84s-3.73,3.94-5.52,5.27S36.2,173.89,36.68,174.4Zm70.77-.58a5.88,5.88,0,0,0,1.59-.29c-.38.38-1.33.38-1.8.51-.81.24-1.6.59-2.42.81-1.88.51-3.79.94-5.68,1.31s-3.8.59-5.67,1.06a39.16,39.16,0,0,1-6,1.23c-7.47.68-15.11,1.46-22.56,1.83a99.41,99.41,0,0,1-10.75-.05c-3.75-.22-7.47-.14-11.25-.74s-7.25-1.27-10.87-2.17c-1.14-.27-3.43-.88-3.62-2.61-.14-1.19,2.19-2.18,3-2.67,2.56-1.6,5.13-4.95,7.61-6.82,2.33-1.76,4.78-4.63,7.25-6.35a19.07,19.07,0,0,0,3.17-2.8c.95-1,2.24-2.07,2.36-3.58.14-1.8-.15-3.78-.15-5.63,0-1.39-.17-2.79-.19-4.18,0-2.49-.26-1.89-.3-4.37,0-1.44.38-3.44-.19-4.84-.65-1.61-2.39-3.05-3.41-4.51s-1.82-2.77-2.64-4.18c-.65-1.11-1.68-3.4-2.67-4.22s-3.26-.6-4.44-.75a41.76,41.76,0,0,1-5.62-1c-1.74-.46-3.46-.73-5.22-1.28s-3.5-1.1-5.1-1.49-3.37-.79-5-1.26a11.36,11.36,0,0,0-2.28-.78c-.4.08-.42.91-.44,1.53a35.05,35.05,0,0,0,.38,4.65,8,8,0,0,0,.36,2.64c.48.9,1.21,1,2,1.36a63.41,63.41,0,0,0,9.85,2.91c2.75.72,6,.33,8.66,1.85s4.2,4.85,6.14,7.06c1.55,1.76,1.42,2,1.4,3.84,0,1.55.17.19.06,1.65-.1,1.24-.08,2.35-.21,3.58a10.08,10.08,0,0,0-.22,2.32c.09.71-2.17,2.87-2.77,3.05-1.12.56-13.61,11.74-18.54,13.28-1,.42-6.48,1.82-7.06,2.71s.45,2,.64,3.13c.27,1.64.49,3.27.76,4.91s.11,3,.23,4.4c0,.27,0,.9.23,1.19.41.47,2.39.67,2.92.79,1.68.42,3.35,1.29,5,1.74,2.07.56,4.14,1.06,6.21,1.61a107.54,107.54,0,0,0,21,3.48c3.91.23,7.87.22,11.79.51a91.33,91.33,0,0,0,10.65,0c6-.25,12.15-.91,18.2-1.56A83.32,83.32,0,0,0,102,184.75c1.12-.27,2.26-.45,3.38-.73a5.05,5.05,0,0,0,1.24-.41c.87-.51.78-.78.79-1.71C107.49,179.13,107.46,176.51,107.46,173.82Z"/><path d="M105.82,109.74c.18.79-.7,1.63-1,2.54-.38,1.1-.74,2.25-1.07,3.37a24.45,24.45,0,0,1-1.4,2.83c-.49,1.14-4,9.5-4.33,10.17-1.19,2.83-2.61,5.57-3.69,8.44-.36,1-1.22,2.55-1.15,3.53s1.31,2.51,1.94,3.31a73.23,73.23,0,0,1,4.33,6.83,129.14,129.14,0,0,0,8.2,11.75,2.26,2.26,0,0,1-.06,3.07c-1.07,1.5-3.2,1.51-4.69,1.78a65.69,65.69,0,0,0-9.15,1.87c-1.68.57-3.76,1.52-5.23.52-1.27-.87-2.13-2.76-3.07-4-1.75-2.29-3-4.94-4.61-7.37-1,.51-.18,3.92-.15,4.78s-.23,1.49-.22,2.22.25,1.54.2,2.37a3.06,3.06,0,0,1-3.2,3.24c-2.28.17-4.63.53-6.89.47a35.17,35.17,0,0,0-5.34.44c-2.33.27-3.77-.63-3.93-3-.12-1.81,0-3.64,0-5.41s-.26-3.69-.27-5.6c0-3.86-.53-7.67-.38-11.55a53.82,53.82,0,0,0-.12-6,46.67,46.67,0,0,1,.06-4.78,108.62,108.62,0,0,0-.07-11.37c-.13-1.6-.71-4.13,0-5.59,1-1.88,4-1.27,5.72-1.39a54.48,54.48,0,0,0,7.49-.71,10.89,10.89,0,0,1,2.62-.34,4.58,4.58,0,0,1,1.48.31c.69.38.58.16.73.92.1.54-.15,1.74,0,2.64s.21,1.95.37,2.94c.2,1.2.31,2.46.45,3.65.11.95-.14,2.44.53,3.13,1.29-2.64,2.45-5.31,3.86-7.94.75-1.4,1.36-3,2-4.43s.87-3.36,2.26-4.25A14.91,14.91,0,0,1,91.71,112c1.17-.33,2.39-.71,3.55-1,2-.45,3.79-.89,5.73-1.51S105.38,107.8,105.82,109.74ZM76.07,167.14a63.7,63.7,0,0,0-.16-7.38c0-2.67.11-5.38.19-8.06s2.09-3.66,4.37-2.91c1.67.54,2.49,2.9,3.22,4.42a75.94,75.94,0,0,0,6.48,10.71c.46.66,1,1.93,2,2s2.19-.7,3.14-1c2.18-.6,4.56-.51,6.66-1.39-1.43-2.61-3.48-4.79-5-7.38-1.41-2.42-3-4.71-4.44-7.16-.71-1.21-1.5-2.35-2.26-3.54-.42-.65-.9-1.26-1.33-1.91-.67-1-.58-1.36-.1-2.54,1.13-2.82,2.1-5.69,3.38-8.51,1.37-3,2.86-6,4.19-9.09.78-1.79,1.47-3.61,2.22-5.42.24-.59,1.76-3.35,1.23-3.86-.27-.25-4,.75-4.51.87-.7.17-1.37.47-2.06.69a11.35,11.35,0,0,0-2.59.7,5.39,5.39,0,0,0-1.36,2.52,25.08,25.08,0,0,1-2,4,69.15,69.15,0,0,0-3.8,8.82c-.54,1.36-1.28,2.61-1.94,3.91a18.7,18.7,0,0,1-2,3.87c-.83,1-2.51,1.29-3.36.3-.62-.71-.42-2.7-.57-3.69-.21-1.47-.07-3.17-.19-4.7s-.27-3-.42-4.57-.36-2.75-.54-4.13c-.06-.44-.1-1.75-.47-2.07s-1.68,0-2.15,0c-1.41,0-2.86.2-4.25.24s-2.79-.27-2.87,1.17c-.15,2.6.31,5.25.27,7.8s0,5.38-.14,8c-.17,3.05,0,6.32.14,9.41s0,6.24.33,9.33c.3,3.29.08,6.64.2,9.89,0,1.3.27,1.18,1.5,1.07a22.59,22.59,0,0,1,3.06-.1A35.38,35.38,0,0,0,76.07,167.14Z"/><path d="M249.56,127.32c-.08,2.88-.39,5.92-.21,8.85a26.77,26.77,0,0,1,.06,3.61c-.09,1.19.29,3.25-.56,4s-2.16.25-3.29-.1a8.51,8.51,0,0,0-2.1-.44c-.13,0-.24.13-.35.12s-.43-.1-.71-.14c-2.25-.28-4.44-.76-6.66-.84-1.26,0-2.51,0-3.79-.08-2.3-.05-2.44-1-2.44-3.23,0-3.3-.24-6.75,0-10,.14-2.29.06-4.68,0-6.94s-.07-4.38-.18-6.59c-.14-2.94-.27-6-.64-8.95-.19-1.44,0-2.81-.06-4.24a42.25,42.25,0,0,1-.24-4.23c.21-3.09.46-6.22.48-9.34,0-1.27-.42-3.42.46-4.39s2.38-.48,3.6-.69a28.92,28.92,0,0,1,8.81-.08c3,.43,6,.87,9,1.54s6.27,1.1,9.39,1.85c2.71.64,6.08.94,7.94,4.34.91,1.67.56,3.73.62,5.25.08,1.73.06,3.4.1,5.12.06,3,0,5.91,0,8.86a85.8,85.8,0,0,0,1,9.87c.23,1.81.23,2.76-1.81,2.25-1.81-.45-3.73-1.31-5.55-1.94,3,6.09,6.9,12.23,9.11,18.72,1,3,2.43,6,3.8,9,.65,1.45,2.2,4,2,5.28s-1.75.81-2.93.22c-1.56-.79-3.09-1.39-4.65-2.07s-2.85-.69-4.33-1.19c-1.12-.38-2.65-.67-3.58-1.7a21.87,21.87,0,0,1-2.86-4.84c-1.36-2.76-2.89-5.4-4.3-8.06-.77-1.46-1.44-3-2.23-4.4C251.78,130.5,250.75,128.13,249.56,127.32Zm22.7,22.26c-1-2.71-2.3-5.39-3.4-8-1.25-3-2.44-6-3.87-8.9s-3-5.77-4.63-8.59c-1-1.82-4.07-5.41-2.73-6.87.72-.79,2.67-.3,3.77,0,.75.19,1.5.46,2.25.7a11.62,11.62,0,0,0,1.84.74c.56-.17.11-2,.07-2.62-.11-1.4-.4-2.82-.61-4.24a38.93,38.93,0,0,1-.07-7.38c.09-2.68,0-5.4-.08-8.15a26.11,26.11,0,0,0-.21-3.14c-.27-1.71-1.27-1.7-2.67-2.12-2.28-.67-4.49-1-6.79-1.48a102.52,102.52,0,0,0-15.68-2.4c-1-.06-2-.1-3-.07-.74,0-2.73-.27-3.26.26s-.22,2.31-.26,3c-.06,1-.15,1.88-.2,2.84-.27,5.19,0,10.6.25,15.9.14,2.87.35,5.84.54,8.64.15,2.15-.16,4.25-.17,6.39,0,2.68-.15,5.44,0,8.15.07,1,0,1.76,0,2.81s.39,3,0,3.83A59.69,59.69,0,0,1,240,139c1.19.14,2.39.52,3.61.65,1.54.17,2,.32,2-1.29,0-1.94-.08-3.85,0-5.74.14-2.68-.19-5.35-.17-8,0-1.47,0-2.95-.06-4.44-.09-1.2-.32-2,.86-2.51,2.16-.94,3.74,2.51,4.71,4.2,1.44,2.5,2.83,5.1,4.34,7.62s2.56,5.09,4,7.63c1.62,2.81,2.64,7,4.95,9.48.89,1,2.28,1,3.42,1.26C269,148.11,271,149.64,272.26,149.58Z"/><path d="M116.27,133.4c-1.25,1.14-2.39,2.73-3.78,3.62-2,1.27-3,0-4-1.3s-1.92-2.59-2.84-3.95c-.65-1-2.15-2.56-2.11-3.81s1.88-2.89,2.74-3.88c1.44-1.67,2.62-3.57,4-5.32,1.17-1.5,2.3-3.07,3.4-4.64s1.86-4,3.63-5c1.4-.78,3.32-.78,4.83-1.28,1.73-.58,3.51-1.13,5.25-1.62,1.2-.34,3.3-1,3.93.12s.39,3.54.57,4.93a89.55,89.55,0,0,1,1.1,9.38c0,1.43.28,2.76.28,4.21,0,1.08-.19,2.3-.18,3.37.05,6.08-.05,12.19.24,18.28.16,3.44.45,6.88.58,10.4.08,2-.35,4.18-.1,6.2a17.53,17.53,0,0,1,.09,3.5,76.41,76.41,0,0,0,.12,11.68,8.2,8.2,0,0,1-.28,3.73c-.77,2-2.22,2.08-3.85,2.34s-3.29.55-4.93.75c-1.88.23-3.68,1.23-5.5,1.58s-1.88-.64-1.75-2.2a24.43,24.43,0,0,0-.62-5.57c-.6-3.85.16-8-.23-11.88-.18-1.82-.11-3.74-.11-5.62,0-2.13-.11-4.22-.28-6.24-.35-4.4.1-9,.06-13.43,0-1.73-.21-3.47-.11-5.22a13.61,13.61,0,0,0,0-1.85A7,7,0,0,0,116.27,133.4Zm13.43,47c.62-3.09-.27-6.34-.28-9.36s-.19-6-.07-9.07a153.36,153.36,0,0,0-.63-15.65c-.31-5.19-.11-10.54-.08-15.86,0-3,0-6-.27-9-.26-3.1-.94-6.09-1.09-9.23-.06-1.2.2-1.91-.92-1.83-1.35.1-3,1.06-4.33,1.41-.94.24-2.16,0-3,.8-.69.61-1.21,2.1-1.76,2.85-1.77,2.42-3.39,5-5.23,7.33-.74.94-1.56,1.84-2.31,2.79-.19.24-1.1,1.08-1.13,1.43s.59,1,.77,1.31c.57.84,1,1.73,1.59,2.58.17.27.77,1.24,1.1,1.25s1.13-.77,1.54-1.16c1.66-1.57,4.09-5.46,6.24-4.66s1.13,5.46,1.13,7.47c0,3.16,0,6.3,0,9.48,0,3.58,0,7.16,0,10.72,0,1.76.32,3.42.26,5.21-.06,1.53-.16,3.14-.08,4.62.16,3.28.14,6.65.14,10,0,1.06.47,6.38.33,7.2-.19,1.1.39.7,1.44.49.73-.15,1.46-.24,2.18-.38C126.74,180.93,128.18,180.81,129.7,180.42Z"/><path d="M203.6,128.07a53.29,53.29,0,0,0,6.24-.59c2-.23,4-.26,6-.54,2.87-.42,7.56-1.75,8.3,2.25a24,24,0,0,1,0,3.15c0,.77.2,1.55.22,2.35,0,1.5.87,4.28,0,5.55-1,1.49-3.14.91-4.63,1-1.82.12-3.68.11-5.53.26-3.82.31-7.61,1.11-11.42,1.66s-7.62.92-11.45,1.32c-1.75.18-2.59.11-3-1.61-.54-2.11.05-4.74-.13-7a62.43,62.43,0,0,1-.11-10c.31-3.74,0-7.51,0-11.26.05-4.26-.18-8.45-.18-12.71,0-1.75.26-3.55.28-5.28s-.7-3.78-.28-5.59c.65-2.82,6-3.43,8.11-3.88,3.66-.8,7.23-.95,10.9-1.43,3.34-.44,6.64-.69,10-1.11,1.67-.21,3.6-.75,5.28-.51,1.3.18,1.42,3.88,1.21,4.59a11.41,11.41,0,0,0,0,2.27c0,2.16.68,4.25.69,6.38,0,1.83.73,4.25-1.83,4.27-2.23,0-4.45-.2-6.71,0s-4.45.28-6.67.55c-1.25.15-2.5.36-3.75.57s-1.42.4-1.27,1.66a76.58,76.58,0,0,1,0,11.27C203.79,119.85,203.71,123.93,203.6,128.07Zm-11.86,12.88c8.27-.32,16.46-3,24.69-3.13,1.13,0,3.52.43,4-.67.29-.67,0-2.29-.08-3,0-1-.08-2.05-.1-3.09s0-.92-.9-1a11.66,11.66,0,0,0-2.75.3c-2.09.31-4.13.37-6.24.57-1.85.17-3.62.27-5.44.54a19.7,19.7,0,0,1-3.59.25c-1.48-.06-1.64-.41-1.61-1.8.08-3.76-.08-7.39,0-11.19.07-2.12.47-4.27.51-6.38,0-1.78-.13-3.56-.17-5.3,0-1.46-1.11-4.1-.32-5.5,1-1.82,4.28-1.74,5.91-1.94,2.71-.35,5.4-.82,8.11-.91,1.08,0,2.14-.06,3.22-.14.67-.05,3.17.36,3.59,0s0-2.42-.16-3.05a26.1,26.1,0,0,1-.35-3.44c0-.24,0-.53-.06-.78s-.2-2.65,0-3.13a66.8,66.8,0,0,0-9.52.92c-3.38.45-6.79.36-10.17.94-1.62.28-3.16.66-4.77,1-.8.18-3.26.23-3.75,1.17-.31.59.14,1.6.2,2.15A22.25,22.25,0,0,1,192,97c0,1.6,0,3.25,0,4.79-.09,3-.07,6,.09,9,.06,1.14-.17,2.28-.15,3.44,0,1.92,0,3.86,0,5.79C191.83,126.94,191.31,134,191.74,140.95Z"/><path d="M271.79,140.08l-.28.19C271.46,140,271.46,140,271.79,140.08Z"/><path d="M258,108.72c-.21,2.71-3.86,1.06-5.94.67-1.21-.24-1.6-.18-2.8-.46s-1.24-.51-2.49-.74c-1.09-.21-3.94-.54-3.74-2.49A17,17,0,0,0,243,104a17.38,17.38,0,0,1,.29-3.14c.26-1.46-.12-3-.06-4.43.12-2.78,3.31-2,5.42-1.53a38.22,38.22,0,0,0,5.14,1,4.88,4.88,0,0,1,3.16,1.39c.81,1,.73,2.33.82,3.39C257.81,101.5,258.17,108.75,258,108.72Zm-11-10.64c0,1.33.11,2.74-.06,4-.11.86-.59,2.36.24,3s2,.58,3.07.83c.66.15.46,0,1.09.08a22,22,0,0,0,2.18.51c1.2,0,.75-1.85.7-2.93,0-.85.23-3.5-.39-4.24s-2.3-.54-3.17-.77C249.27,98.23,248.43,97.61,247.07,98.08Z"/></g></svg>